<?xml version="1.0" encoding="utf-8"?>
<!-- Generator: Adobe Illustrator 22.1.0, SVG Export Plug-In . SVG Version: 6.00 Build 0)  -->
<svg version="1.1" id="Layer_1" xmlns="http://www.w3.org/2000/svg" xmlns:xlink="http://www.w3.org/1999/xlink" x="0px" y="0px"
	 viewBox="0 0 492 492" style="enable-background:new 0 0 492 492;" xml:space="preserve">
<style type="text/css">
	.st0{fill:#390099;}
</style>
<path class="st0" d="M380.9,1.2c-51.5,0-93.1,40.7-93.1,90.9s41.7,90.9,93.1,90.9c51.5,0,93.3-40.7,93.3-90.9S432.4,1.2,380.9,1.2z
	 M381,164.8c-41.2,0-74.6-32.5-74.6-72.7c0-40.2,33.4-72.7,74.6-72.7c41.2,0,74.6,32.5,74.6,72.7C455.5,132.3,422.2,164.8,381,164.8
	z"/>
<path class="st0" d="M385.6,46.7h-14v54.5l48.9,28.6l7-11.2l-41.9-24.3V46.7z"/>
<path class="st0" d="M336.6,227.7L108.9,130c-4.6-1.9-9.7-2.1-14.4-0.3c-2.3,0.9-4.4,2.2-6.1,3.9s-3.2,3.7-4.1,5.9L28.3,266.7
	c-1.9,4.4-2,9.4-0.2,13.9c1.8,4.5,5.4,8.1,10,10l129.7,54.2l-23.1,56.3H64.1v-54.5H26.8V492h37.3v-54.5h80.6
	c15.3,0,28.9-9,34.6-22.9l22.8-55.5l63.7,26.6c4.5,1.9,9.6,2,14.2,0.2c4.6-1.8,8.3-5.2,10.2-9.6l55.9-124.6c2-4.4,2.1-9.4,0.3-13.9
	C344.6,233.3,341.1,229.7,336.6,227.7L336.6,227.7z M361,389.7l-34.6-13.5l37.2-90.9l34.6,13.5L361,389.7z"/>
</svg>
