<svg width="14" height="14" viewBox="0 0 14 14" fill="none" xmlns="http://www.w3.org/2000/svg">
<path d="M6.993 0C3.129 0 0 3.136 0 7C0 10.864 3.129 14 6.993 14C10.864 14 14 10.864 14 7C14 3.136 10.864 0 6.993 0ZM9.8 9.8C9.73525 9.86489 9.65832 9.91641 9.57362 9.95148C9.48899 9.98662 9.3982 10.0047 9.3065 10.0047C9.2148 10.0047 9.12401 9.98662 9.03938 9.95148C8.95468 9.91641 8.87775 9.86489 8.813 9.8L6.51 7.497C6.44386 7.43218 6.39124 7.35483 6.35519 7.26957C6.31914 7.18424 6.30038 7.09261 6.3 7V4.2C6.3 3.815 6.615 3.5 7 3.5C7.385 3.5 7.7 3.815 7.7 4.2V6.713L9.8 8.813C10.073 9.086 10.073 9.527 9.8 9.8Z" fill="#390099"/>
</svg>
