<svg width="30" height="30" viewBox="0 0 30 30" fill="none" xmlns="http://www.w3.org/2000/svg">
<circle cx="15" cy="15" r="15" fill="white" fill-opacity="0.5"/>
<g clip-path="url(#clip0_1967_9693)">
<path d="M12.2084 7.79172L9.88336 10.1167C9.61669 10.3751 9.80003 10.8251 10.175 10.8251H11.6667V15.8334C11.6667 16.2917 12.0417 16.6667 12.5 16.6667C12.9584 16.6667 13.3334 16.2917 13.3334 15.8334V10.8251H14.825C15.2 10.8251 15.3834 10.3751 15.1167 10.1167L12.7917 7.79172C12.6334 7.63339 12.3667 7.63339 12.2084 7.79172ZM18.3334 19.1751V14.1667C18.3334 13.7084 17.9584 13.3334 17.5 13.3334C17.0417 13.3334 16.6667 13.7084 16.6667 14.1667V19.1751H15.175C14.8 19.1751 14.6167 19.6251 14.8834 19.8834L17.2084 22.2001C17.375 22.3584 17.6334 22.3584 17.8 22.2001L20.125 19.8834C20.3917 19.6251 20.2 19.1751 19.8334 19.1751H18.3334Z" fill="#390099"/>
</g>
<defs>
<clipPath id="clip0_1967_9693">
<rect width="20" height="20" fill="white" transform="translate(5 5)"/>
</clipPath>
</defs>
</svg>
