<svg width="21" height="20" viewBox="0 0 21 20" fill="none" xmlns="http://www.w3.org/2000/svg">
<path d="M10.49 0C4.97 0 0.5 4.48 0.5 10C0.5 15.52 4.97 20 10.49 20C16.02 20 20.5 15.52 20.5 10C20.5 4.48 16.02 0 10.49 0ZM14.5 14C14.4075 14.0927 14.2976 14.1663 14.1766 14.2164C14.0557 14.2666 13.926 14.2924 13.795 14.2924C13.664 14.2924 13.5343 14.2666 13.4134 14.2164C13.2924 14.1663 13.1825 14.0927 13.09 14L9.8 10.71C9.70551 10.6174 9.63034 10.5069 9.57885 10.3851C9.52735 10.2632 9.50055 10.1323 9.5 10V6C9.5 5.45 9.95 5 10.5 5C11.05 5 11.5 5.45 11.5 6V9.59L14.5 12.59C14.89 12.98 14.89 13.61 14.5 14Z" fill="#390099"/>
</svg>
