<?xml version="1.0" encoding="utf-8"?>
<!-- Generator: Adobe Illustrator 22.1.0, SVG Export Plug-In . SVG Version: 6.00 Build 0)  -->
<svg version="1.1" id="Layer_1" xmlns="http://www.w3.org/2000/svg" xmlns:xlink="http://www.w3.org/1999/xlink" x="0px" y="0px"
	 viewBox="0 0 16.8 17.1" style="enable-background:new 0 0 16.8 17.1;" xml:space="preserve">
<style type="text/css">
	.st0{fill:#390099;}
</style>
<path class="st0" d="M13.2,0.4c-1.9,0-3.4,1.4-3.4,3.1s1.5,3.1,3.4,3.1c1.9,0,3.4-1.4,3.4-3.1S15.1,0.4,13.2,0.4z M13.2,5.8
	c-1.5,0-2.7-1.1-2.7-2.4S11.7,1,13.2,1s2.7,1.1,2.7,2.4C15.9,4.8,14.7,5.8,13.2,5.8z"/>
<path class="st0" d="M13.4,1.9h-0.5v1.8l1.8,1l0.3-0.4l-1.5-0.8V1.9z"/>
<path class="st0" d="M11.6,8L3.2,4.7C3,4.6,2.8,4.6,2.6,4.7c-0.1,0-0.2,0.1-0.2,0.1C2.4,4.9,2.3,4.9,2.3,5L0.2,9.3
	c-0.1,0.1-0.1,0.3,0,0.5c0.1,0.2,0.2,0.3,0.4,0.3l4.8,1.8l-0.9,1.9h-3V12H0.1v4.9h1.4V15h3c0.6,0,1.1-0.3,1.3-0.8l0.8-1.9L9,13.3
	c0.2,0.1,0.4,0.1,0.5,0c0.2-0.1,0.3-0.2,0.4-0.3l2.1-4.2c0.1-0.1,0.1-0.3,0-0.5C11.9,8.2,11.7,8,11.6,8L11.6,8z M12.5,13.4L11.2,13
	l1.4-3.1l1.3,0.5L12.5,13.4z"/>
</svg>
