<svg width="14" height="16" viewBox="0 0 14 16" fill="none" xmlns="http://www.w3.org/2000/svg">
<path d="M10.8862 0.505569C9.45507 0.505569 8.29619 1.63802 8.29619 3.03335C8.29619 4.42868 9.45507 5.56113 10.8862 5.56113C12.3199 5.56113 13.4814 4.42868 13.4814 3.03335C13.4814 1.63802 12.3199 0.505569 10.8862 0.505569ZM10.8888 5.05557C9.74287 5.05557 8.81473 4.15062 8.81473 3.03335C8.81473 1.91607 9.74287 1.01112 10.8888 1.01112C12.0347 1.01112 12.9629 1.91607 12.9629 3.03335C12.9629 4.15062 12.0347 5.05557 10.8888 5.05557Z" fill="#390099"/>
<path d="M11.0185 1.76944H10.6296V3.28611L11.9907 4.08236L12.1852 3.77144L11.0185 3.09653V1.76944Z" fill="#390099"/>
<path d="M9.65381 6.80577L3.32013 4.08741C3.1934 4.03324 3.0498 4.03033 2.92087 4.07932C2.85715 4.10393 2.79906 4.14059 2.74994 4.18718C2.70082 4.23377 2.66163 4.28939 2.63464 4.3508L1.07909 7.8897C1.02492 8.0129 1.02317 8.15209 1.07422 8.27653C1.12527 8.40102 1.22494 8.50063 1.35131 8.55351L4.95864 10.0606L4.31568 11.6278H2.07413V10.1111H1.03709V14.1556H2.07413V12.6389H4.31568C4.74243 12.6389 5.12043 12.3891 5.27806 12.0029L5.91166 10.4589L7.68449 11.1996C7.81033 11.2523 7.95238 11.2543 8.07978 11.2053C8.20712 11.1562 8.30938 11.06 8.3643 10.9377L9.91981 7.4711C9.97489 7.34843 9.97775 7.20957 9.92789 7.0848C9.87802 6.9601 9.77949 6.85973 9.65381 6.80577ZM10.3342 11.3103L9.37074 10.9352L10.4067 8.40737L11.3702 8.78198L10.3342 11.3103Z" fill="#390099"/>
</svg>
