<svg width="21" height="20" viewBox="0 0 21 20" fill="none" xmlns="http://www.w3.org/2000/svg">
<path d="M18.516 9.724C17.7543 10.4872 16.7835 11.0075 15.7262 11.219C14.6689 11.4304 13.5726 11.3236 12.576 10.912L6.08397 18.736C4.89597 19.924 2.97597 19.924 1.78797 18.736C0.599973 17.548 0.599973 15.628 1.78797 14.452L9.61197 7.948C8.79597 5.968 9.19197 3.616 10.8 2.008C12.336 0.471997 14.544 0.0639975 16.464 0.735998L12.996 4.204L16.38 7.588L19.812 4.144C20.448 6.04 20.028 8.212 18.516 9.724ZM3.07197 17.452C3.55197 17.92 4.31997 17.92 4.78797 17.452C5.26797 16.972 5.26797 16.204 4.78797 15.736C4.31997 15.256 3.55197 15.256 3.07197 15.736C2.84698 15.9649 2.72091 16.273 2.72091 16.594C2.72091 16.915 2.84698 17.2231 3.07197 17.452Z" fill="#390099"/>
</svg>
