<svg width="30" height="30" viewBox="0 0 30 30" fill="none" xmlns="http://www.w3.org/2000/svg">
<circle cx="15" cy="15" r="15" fill="white" fill-opacity="0.5"/>
<path d="M15 16.5585C16.7925 16.5585 18.294 15.9495 18.3848 15.1537L17.541 12.7898C17.343 13.3605 16.2473 13.7655 15 13.7655C13.7528 13.7655 12.657 13.3605 12.459 12.7898L11.616 15.1537C11.7068 15.9495 13.2075 16.5585 15 16.5585ZM15 11.5298C15.843 11.5298 16.6253 11.2688 16.8548 10.863C16.539 9.9765 16.2683 9.21525 16.0965 8.736C15.9825 8.41575 15.4658 8.25 15 8.25C14.5343 8.25 14.0175 8.41575 13.9035 8.736L13.1453 10.863C13.3748 11.2688 14.1578 11.5298 15 11.5298ZM21.585 17.2995L18.7688 16.164L19.0935 17.0693C19.077 18.0285 17.2155 18.7935 15 18.7935C12.7853 18.7935 10.9223 18.0293 10.9065 17.0693L11.2313 16.164L8.41503 17.2995C7.62528 17.6175 7.59153 18.2063 8.34153 18.6075L13.638 21.4478C14.3865 21.849 15.6128 21.849 16.362 21.4478L21.6593 18.6075C22.4085 18.2063 22.3748 17.6175 21.585 17.2995Z" fill="#390099"/>
</svg>
