<svg width="26" height="26" viewBox="0 0 26 26" fill="none" xmlns="http://www.w3.org/2000/svg">
<path d="M17.0625 20.3125H2.4375V10.5625H17.0625M17.0625 8.9375H2.4375C2.00652 8.9375 1.5932 9.1087 1.28845 9.41345C0.983705 9.7182 0.8125 10.1315 0.8125 10.5625V20.3125C0.8125 20.7435 0.983705 21.1568 1.28845 21.4615C1.5932 21.7663 2.00652 21.9375 2.4375 21.9375H6.5V23.5625H13V21.9375H17.0625C17.4935 21.9375 17.9068 21.7663 18.2115 21.4615C18.5163 21.1568 18.6875 20.7435 18.6875 20.3125V10.5625C18.6875 10.1315 18.5163 9.7182 18.2115 9.41345C17.9068 9.1087 17.4935 8.9375 17.0625 8.9375Z" fill="#390099"/>
<path d="M21.1209 0.8125C18.8784 0.8125 17.0625 2.6325 17.0625 4.875C17.0625 7.1175 18.8784 8.9375 21.1209 8.9375C23.3675 8.9375 25.1875 7.1175 25.1875 4.875C25.1875 2.6325 23.3675 0.8125 21.1209 0.8125ZM21.125 8.125C19.3294 8.125 17.875 6.67063 17.875 4.875C17.875 3.07937 19.3294 1.625 21.125 1.625C22.9206 1.625 24.375 3.07937 24.375 4.875C24.375 6.67063 22.9206 8.125 21.125 8.125Z" fill="#344879"/>
<path d="M21.3281 2.84375H20.7188V5.28125L22.8516 6.56094L23.1562 6.06125L21.3281 4.97656V2.84375Z" fill="#344879"/>
</svg>
