<svg width="30" height="30" viewBox="0 0 30 30" fill="none" xmlns="http://www.w3.org/2000/svg">
<circle cx="15" cy="15" r="15" fill="white" fill-opacity="0.5"/>
<g clip-path="url(#clip0_1967_9682)">
<path d="M9.99998 13.3334C9.08331 13.3334 8.33331 14.0834 8.33331 15C8.33331 15.9167 9.08331 16.6667 9.99998 16.6667C10.9166 16.6667 11.6666 15.9167 11.6666 15C11.6666 14.0834 10.9166 13.3334 9.99998 13.3334ZM20 13.3334C19.0833 13.3334 18.3333 14.0834 18.3333 15C18.3333 15.9167 19.0833 16.6667 20 16.6667C20.9166 16.6667 21.6666 15.9167 21.6666 15C21.6666 14.0834 20.9166 13.3334 20 13.3334ZM15 13.3334C14.0833 13.3334 13.3333 14.0834 13.3333 15C13.3333 15.9167 14.0833 16.6667 15 16.6667C15.9166 16.6667 16.6666 15.9167 16.6666 15C16.6666 14.0834 15.9166 13.3334 15 13.3334Z" fill="#390099"/>
</g>
<defs>
<clipPath id="clip0_1967_9682">
<rect width="20" height="20" fill="white" transform="translate(5 5)"/>
</clipPath>
</defs>
</svg>
