<svg width="30" height="30" viewBox="0 0 30 30" fill="none" xmlns="http://www.w3.org/2000/svg">
<circle cx="15" cy="15" r="15" fill="white" fill-opacity="0.5"/>
<path d="M20.1 16.2L19 14C18.9055 13.8464 18.7731 13.7197 18.6155 13.6321C18.4579 13.5445 18.2803 13.499 18.1 13.5H11.9C11.7197 13.499 11.5421 13.5445 11.3845 13.6321C11.2269 13.7197 11.0945 13.8464 11 14L9.9 16.2L8.66 17.352C8.60961 17.3987 8.56939 17.4554 8.54186 17.5183C8.51433 17.5813 8.50008 17.6493 8.5 17.718V22C8.5 22.1326 8.55268 22.2598 8.64645 22.3536C8.74021 22.4473 8.86739 22.5 9 22.5H11C11.2 22.5 11.5 22.3 11.5 22.1V21.5H18.5V22C18.5 22.2 18.7 22.5 18.9 22.5H21C21.1326 22.5 21.2598 22.4473 21.3536 22.3536C21.4473 22.2598 21.5 22.1326 21.5 22V17.718C21.4999 17.6493 21.4857 17.5813 21.4581 17.5183C21.4306 17.4554 21.3904 17.3987 21.34 17.352L20.1 16.2ZM12 14.5H18L19 16.5H11L12 14.5ZM12.5 19.1C12.5 19.3 12.2 19.5 12 19.5H9.9C9.7 19.5 9.5 19.2 9.5 19V17.9C9.6 17.6 9.8 17.4 10.1 17.5L12.1 17.9C12.3 17.9 12.5 18.2 12.5 18.4V19.1ZM20.5 19C20.5 19.2 20.3 19.5 20.1 19.5H18C17.8 19.5 17.5 19.3 17.5 19.1V18.4C17.5 18.2 17.7 17.9 17.9 17.9L19.9 17.5C20.2 17.4 20.4 17.6 20.5 17.9V19ZM15.5 11.5H14.5L13.5 7.5H16.5L15.5 11.5ZM8.6 9.3L11.2 7.8L12.3 11.8L11.5 12.2L8.6 9.3ZM18.8 7.8L21.4 9.3L18.5 12.3L17.6 11.8L18.8 7.8Z" fill="#390099"/>
</svg>
