<?xml version="1.0" encoding="utf-8"?>
<!-- Generator: Adobe Illustrator 22.1.0, SVG Export Plug-In . SVG Version: 6.00 Build 0)  -->
<svg version="1.1" id="Layer_1" xmlns="http://www.w3.org/2000/svg" xmlns:xlink="http://www.w3.org/1999/xlink" x="0px" y="0px"
	 viewBox="0 0 14 14" style="enable-background:new 0 0 14 14;" xml:space="preserve">
<style type="text/css">
	.st0{fill:#390099;}
</style>
<path class="st0" d="M1.4,4.2h0.2C2.4,4.2,3,4.8,3,5.6v7C3,13.4,2.4,14,1.6,14H1.4C0.6,14,0,13.4,0,12.6v-7C0,4.8,0.6,4.2,1.4,4.2z
	 M7,0c0.8,0,1.4,0.6,1.4,1.4v11.2C8.4,13.4,7.8,14,7,14s-1.4-0.6-1.4-1.4V1.4C5.6,0.6,6.2,0,7,0z M12.6,8C13.4,8,14,8.6,14,9.4v3.2
	c0,0.8-0.6,1.4-1.4,1.4s-1.4-0.6-1.4-1.4V9.4C11.2,8.6,11.8,8,12.6,8z"/>
</svg>
