<svg width="14" height="13" viewBox="0 0 14 13" fill="none" xmlns="http://www.w3.org/2000/svg">
<g clip-path="url(#clip0_1_24)">
<path d="M13.3 2.1H11.9V0H10.5V2.1H3.5V0H2.1V2.1H0.7C0.514349 2.1 0.336301 2.17375 0.205025 2.30502C0.0737499 2.4363 0 2.61435 0 2.8V7.7C0 7.88564 0.0737499 8.06372 0.205025 8.19497C0.336301 8.32622 0.514349 8.4 0.7 8.4H2.1V12.6H3.5V8.4H10.5V12.6H11.9V8.4H13.3C13.4856 8.4 13.6637 8.32622 13.795 8.19497C13.9262 8.06372 14 7.88564 14 7.7V2.8C14 2.61435 13.9262 2.4363 13.795 2.30502C13.6637 2.17375 13.4856 2.1 13.3 2.1ZM1.694 7L3.6939 3.5H5.306L3.3061 7H1.694ZM7.1939 3.5H8.806L6.8061 7H5.194L7.1939 3.5ZM10.6939 3.5H12.306L10.3061 7H8.694L10.6939 3.5Z" fill="#390099"/>
</g>
<defs>
<clipPath id="clip0_1_24">
<rect width="14" height="12.6" fill="white"/>
</clipPath>
</defs>
</svg>
