<svg width="26" height="29" viewBox="0 0 26 29" fill="none" xmlns="http://www.w3.org/2000/svg">
<path d="M20.2172 0.938904C17.5594 0.938904 15.4072 3.04202 15.4072 5.63335C15.4072 8.22468 17.5594 10.3278 20.2172 10.3278C22.8798 10.3278 25.0369 8.22468 25.0369 5.63335C25.0369 3.04202 22.8798 0.938904 20.2172 0.938904ZM20.222 9.38891C18.0939 9.38891 16.3702 7.70829 16.3702 5.63335C16.3702 3.5584 18.0939 1.87779 20.222 1.87779C22.3502 1.87779 24.0739 3.5584 24.0739 5.63335C24.0739 7.70829 22.3502 9.38891 20.222 9.38891Z" fill="#390099"/>
<path d="M20.4629 3.2861H19.7407V6.10277L22.2685 7.58152L22.6296 7.0041L20.4629 5.75069V3.2861Z" fill="#390099"/>
<path d="M17.9285 12.6393L6.16595 7.59091C5.9306 7.49031 5.66391 7.48491 5.42447 7.57589C5.30614 7.6216 5.19826 7.68967 5.10703 7.7762C5.0158 7.86273 4.94303 7.96601 4.89291 8.08007L2.00403 14.6523C1.90343 14.8811 1.90017 15.1396 1.99498 15.3707C2.08979 15.6019 2.27489 15.7869 2.50958 15.8851L9.20891 18.6839L8.01484 21.5944H3.85195V18.7778H1.92603V26.2889H3.85195V23.4722H8.01484C8.80736 23.4722 9.50936 23.0084 9.8021 22.2911L10.9788 19.4237L14.2712 20.7992C14.5049 20.8971 14.7687 20.9009 15.0053 20.8098C15.2418 20.7187 15.4317 20.54 15.5337 20.3129L18.4225 13.8749C18.5248 13.6471 18.5301 13.3892 18.4375 13.1575C18.3449 12.9259 18.1619 12.7395 17.9285 12.6393V12.6393ZM19.192 21.0048L17.4028 20.3082L19.3268 15.6137L21.116 16.3094L19.192 21.0048Z" fill="#390099"/>
</svg>
