<svg width="15" height="15" viewBox="0 0 15 15" fill="none" xmlns="http://www.w3.org/2000/svg">
<path d="M6.99563 0.937502C6.78663 0.937507 6.58363 1.00735 6.41887 1.13593C6.25411 1.26451 6.13704 1.44446 6.08625 1.64719L4.74 7.03125H7.96875C8.09307 7.03125 8.2123 7.08064 8.30021 7.16855C8.38811 7.25645 8.4375 7.37568 8.4375 7.5C8.4375 7.62432 8.38811 7.74355 8.30021 7.83146C8.2123 7.91937 8.09307 7.96875 7.96875 7.96875H4.50563L4.03688 9.84375H8.67188C8.7962 9.84375 8.91542 9.89314 9.00333 9.98104C9.09124 10.069 9.14062 10.1882 9.14062 10.3125C9.14062 10.4368 9.09124 10.5561 9.00333 10.644C8.91542 10.7319 8.7962 10.7813 8.67188 10.7813H3.8025L3.21563 13.125H1.40625C1.28193 13.125 1.1627 13.1744 1.07479 13.2623C0.986886 13.3502 0.9375 13.4694 0.9375 13.5938C0.9375 13.7181 0.986886 13.8373 1.07479 13.9252C1.1627 14.0131 1.28193 14.0625 1.40625 14.0625H13.5938C13.7181 14.0625 13.8373 14.0131 13.9252 13.9252C14.0131 13.8373 14.0625 13.7181 14.0625 13.5938C14.0625 13.4694 14.0131 13.3502 13.9252 13.2623C13.8373 13.1744 13.7181 13.125 13.5938 13.125H11.7834L8.91469 1.64719C8.86382 1.44415 8.74647 1.26397 8.58133 1.13535C8.41619 1.00674 8.21275 0.937089 8.00344 0.937502H6.99563Z" fill="white"/>
</svg>
