<svg width="15" height="15" viewBox="0 0 15 15" fill="none" xmlns="http://www.w3.org/2000/svg">
<path d="M14.9268 11.797L11.2865 2.42197C11.157 2.08857 10.875 1.875 10.5646 1.875H8.02317L8.08698 2.55352C8.1 2.6918 8.00338 2.8125 7.87968 2.8125H7.12031C6.99661 2.8125 6.9 2.6918 6.91302 2.55352L6.97682 1.875H4.43541C4.12474 1.875 3.8427 2.08857 3.71328 2.42197L0.0729132 11.797C-0.167972 12.4178 0.216403 13.125 0.795309 13.125H5.92135L6.18984 10.2633C6.21224 10.0248 6.39088 9.84375 6.60416 9.84375H8.39583C8.60911 9.84375 8.78776 10.0248 8.81015 10.2633L9.07864 13.125H14.2047C14.7836 13.125 15.168 12.4178 14.9268 11.797ZM6.78125 3.95977C6.78665 3.90217 6.81083 3.84886 6.8491 3.81012C6.88738 3.77139 6.93705 3.74997 6.98854 3.75H8.01171C8.11823 3.75 8.20781 3.84053 8.21901 3.95977L8.3388 5.23652C8.35833 5.44424 8.21354 5.625 8.02812 5.625H6.97239C6.78672 5.625 6.64218 5.44424 6.66172 5.23652L6.78125 3.95977ZM8.21979 8.90625H6.77994C6.53255 8.90625 6.33958 8.66514 6.36562 8.38828L6.49765 6.98203C6.52005 6.74356 6.69869 6.5625 6.91198 6.5625H8.08776C8.30104 6.5625 8.47968 6.74356 8.50208 6.98203L8.63411 8.38828C8.66015 8.66514 8.46719 8.90625 8.21979 8.90625Z" fill="white"/>
</svg>
