<?xml version="1.0" encoding="utf-8"?>
<!-- Generator: Adobe Illustrator 22.1.0, SVG Export Plug-In . SVG Version: 6.00 Build 0)  -->
<svg version="1.1" id="Layer_1" xmlns="http://www.w3.org/2000/svg" xmlns:xlink="http://www.w3.org/1999/xlink" x="0px" y="0px"
	 viewBox="0 0 19.6 21.2" style="enable-background:new 0 0 19.6 21.2;" xml:space="preserve">
<style type="text/css">
	.st0{fill:#FFFFFF;stroke:#390099;stroke-width:0.75;}
	.st1{fill:#344879;stroke:#390099;stroke-width:0.75;}
</style>
<path class="st0" d="M17.6,15.2l0.1,0.3H18h1.2v0.8H18h-0.3l-0.1,0.3c-0.1,0.4-0.3,0.8-0.5,1.2L17,18l0.2,0.2l0.9,0.9l-0.5,0.5
	l-0.9-0.9l-0.2-0.2l-0.3,0.2c-0.4,0.2-0.8,0.4-1.2,0.5l-0.3,0.1v0.3v1.2H14v-1.2v-0.3l-0.3-0.1c-0.4-0.1-0.8-0.3-1.2-0.5l-0.3-0.2
	L12,18.7l-0.9,0.9L10.6,19l0.9-0.9l0.2-0.2l-0.2-0.3c-0.2-0.4-0.4-0.8-0.5-1.2L11,16.2h-0.3H9.5v-0.8h1.2H11l0.1-0.3
	c0.1-0.4,0.3-0.8,0.5-1.2l0.2-0.3l-0.2-0.2l-0.9-0.9l0.5-0.5L12,13l0.2,0.2l0.3-0.2c0.4-0.2,0.8-0.4,1.2-0.5l0.3-0.1v-0.3V11h0.8
	v1.2v0.3l0.3,0.1c0.4,0.1,0.8,0.3,1.2,0.5l0.3,0.2l0.2-0.2l0.9-0.9l0.5,0.5l-0.9,0.9L17,13.8l0.2,0.3C17.4,14.4,17.6,14.8,17.6,15.2
	z M14.3,18.5L14.3,18.5c0.7,0,1.4-0.3,1.9-0.8c0.5-0.5,0.8-1.2,0.8-1.9v0c0-0.5-0.2-1-0.4-1.5c-0.3-0.4-0.7-0.8-1.2-1
	c-0.5-0.2-1-0.3-1.5-0.1c-0.5,0.1-1,0.4-1.3,0.7c-0.4,0.4-0.6,0.8-0.7,1.3c-0.1,0.5,0,1,0.1,1.5c0.2,0.5,0.5,0.9,1,1.2
	C13.3,18.3,13.8,18.5,14.3,18.5z M3.5,9.5h3.7v0.8H3.5V9.5z M3.5,3.5h8.2v0.7H3.5V3.5z M3.5,6.5h8.2v0.8H3.5V6.5z M3.5,17h3.7v0.8
	H3.5V17z"/>
<path class="st1" d="M14.7,1.6v7.1H14V1.6V1.2h-0.4h-12H1.2v0.4v18V20h0.4h5.6v0.8H1.6c-0.3,0-0.6-0.1-0.8-0.3
	c-0.2-0.2-0.3-0.5-0.3-0.8v-18c0-0.3,0.1-0.6,0.3-0.8C1,0.6,1.3,0.5,1.6,0.5h12c0.3,0,0.6,0.1,0.8,0.3C14.6,1,14.7,1.3,14.7,1.6z"/>
</svg>
