<svg width="14" height="14" viewBox="0 0 14 14" fill="none" xmlns="http://www.w3.org/2000/svg">
<g clip-path="url(#clip0_1_48)">
<path d="M12.344 6.48266C11.8362 6.99146 11.189 7.33833 10.4841 7.47933C9.77926 7.62026 9.0484 7.54906 8.384 7.27466L4.05598 12.4907C3.26398 13.2827 1.98398 13.2827 1.19198 12.4907C0.399977 11.6987 0.399977 10.4187 1.19198 9.63466L6.40798 5.29866C5.86398 3.97866 6.12798 2.41066 7.2 1.33866C8.224 0.314659 9.696 0.0426598 10.976 0.49066L8.664 2.80266L10.92 5.05866L13.208 2.76266C13.632 4.02666 13.352 5.47466 12.344 6.48266ZM2.04798 11.6347C2.36798 11.9467 2.87998 11.9467 3.19198 11.6347C3.51198 11.3147 3.51198 10.8027 3.19198 10.4907C2.87998 10.1707 2.36798 10.1707 2.04798 10.4907C1.89798 10.6433 1.81394 10.8487 1.81394 11.0627C1.81394 11.2767 1.89798 11.4821 2.04798 11.6347Z" fill="#390099"/>
</g>
<defs>
<clipPath id="clip0_1_48">
<rect width="14" height="13.3333" fill="white"/>
</clipPath>
</defs>
</svg>
