<svg width="30" height="30" viewBox="0 0 30 30" fill="none" xmlns="http://www.w3.org/2000/svg">
<circle cx="15" cy="15" r="15" fill="white" fill-opacity="0.5"/>
<path d="M6.71997 20.76C6.71997 20.71 6.72997 20.64 6.73997 20.55V15.79C7.01997 16.28 7.39997 16.68 7.88997 16.98C8.37997 17.28 8.91997 17.43 9.49997 17.43C10.09 17.43 10.63 17.28 11.12 16.98C11.61 16.68 11.99 16.29 12.27 15.79C12.54 16.28 12.93 16.68 13.42 16.98C13.91 17.28 14.45 17.43 15.04 17.43C15.62 17.43 16.16 17.28 16.65 16.98C17.14 16.68 17.52 16.29 17.8 15.79C18.08 16.28 18.47 16.68 18.95 16.98C19.4303 17.2777 19.9849 17.4337 20.55 17.43C21.13 17.43 21.67 17.28 22.16 16.98C22.65 16.68 23.04 16.29 23.31 15.79V20.91C23.28 21.14 23.18 21.34 23.01 21.51C22.84 21.68 22.64 21.78 22.41 21.81C22.39 21.81 22.36 21.81 22.33 21.82C22.3 21.83 22.27 21.83 22.25 21.83C22.24 21.83 22.21 21.83 22.18 21.82C22.15 21.81 22.12 21.81 22.1 21.81H7.93997C7.91997 21.81 7.89997 21.81 7.85997 21.82C7.82997 21.83 7.79997 21.83 7.78997 21.83C7.76997 21.83 7.73997 21.83 7.70997 21.82C7.67997 21.81 7.64997 21.81 7.63997 21.81C7.4209 21.7837 7.21683 21.6852 7.05997 21.53C6.90117 21.3784 6.78997 21.1838 6.73997 20.97C6.72997 20.88 6.71997 20.81 6.71997 20.76ZM12.23 9.66998C12.23 9.50998 12.29 9.36998 12.4 9.24998L14.61 7.02998L14.64 7.00998C14.65 7.00998 14.65 7.00998 14.65 6.99998C14.66 6.99998 14.66 6.99998 14.66 6.98998C14.67 6.98998 14.67 6.98998 14.67 6.97998H14.68C14.69 6.97998 14.69 6.97998 14.69 6.96998C14.69 6.95998 14.69 6.95998 14.7 6.94998H14.72L14.73 6.93998H14.74L14.75 6.92998H14.76L14.77 6.91998H14.78C14.79 6.90998 14.79 6.90998 14.8 6.90998H14.81C14.81 6.89998 14.82 6.89998 14.83 6.89998C14.84 6.88998 14.84 6.88998 14.85 6.88998L14.89 6.86998H14.9C14.91 6.86998 14.91 6.86998 14.91 6.85998H14.98L14.99 6.84998H15.11C15.12 6.84998 15.12 6.84998 15.13 6.85998H15.19C15.19 6.86998 15.19 6.86998 15.2 6.86998H15.22C15.23 6.87998 15.24 6.88998 15.25 6.88998L15.27 6.89998H15.29L15.3 6.90998H15.31L15.32 6.91998C15.33 6.91998 15.33 6.91998 15.33 6.92998H15.37C15.38 6.93998 15.38 6.93998 15.39 6.93998C15.39 6.94998 15.39 6.95998 15.4 6.95998L15.41 6.96998H15.43L15.44 6.97998L15.41 6.99998L15.42 7.00998L15.44 7.02998L17.66 9.24998C17.78 9.36998 17.84 9.50998 17.84 9.66998C17.84 9.82998 17.78 9.96998 17.66 10.08C17.55 10.2 17.41 10.26 17.25 10.26C17.09 10.26 16.95 10.2 16.84 10.08L15.61 8.85998V15.76C15.61 15.92 15.55 16.05 15.44 16.16C15.33 16.27 15.19 16.33 15.03 16.33C14.87 16.33 14.73 16.27 14.61 16.16C14.5546 16.1094 14.5108 16.0475 14.4815 15.9785C14.4521 15.9095 14.438 15.8349 14.44 15.76V8.85998L13.22 10.08C13.1 10.2 12.96 10.26 12.8 10.26C12.64 10.26 12.5 10.2 12.39 10.08C12.2866 9.96851 12.2294 9.82198 12.23 9.66998Z" fill="#390099"/>
</svg>
