<svg width="14" height="14" viewBox="0 0 14 14" fill="none" xmlns="http://www.w3.org/2000/svg">
<path d="M11.9916 9.66916L12.0275 9.84375H12.2058H12.9062V10.2812H12.2058H12.0275L11.9916 10.4558C11.9408 10.7022 11.843 10.9363 11.7035 11.1456L11.6041 11.2948L11.7309 11.4216L12.2281 11.9188L11.9188 12.2281L11.4216 11.7309L11.2948 11.6041L11.1456 11.7035C10.9363 11.843 10.7022 11.9408 10.4558 11.9916L10.2812 12.0275V12.2058V12.9062H9.84375V12.2058V12.0275L9.66916 11.9916C9.42282 11.9408 9.18867 11.843 8.97937 11.7035L8.83021 11.6041L8.70339 11.7309L8.20616 12.2281L7.89693 11.9188L8.39411 11.4216L8.52092 11.2948L8.42147 11.1456C8.28199 10.9363 8.18417 10.7022 8.13342 10.4558L8.09748 10.2812H7.91916H7.21875V9.84375H7.91916H8.09748L8.13342 9.66916C8.18417 9.42282 8.28199 9.18867 8.42147 8.97937L8.52092 8.83021L8.39411 8.70339L7.89693 8.20616L8.20616 7.89693L8.70339 8.39411L8.83021 8.52092L8.97937 8.42147C9.18867 8.28199 9.42282 8.18417 9.66916 8.13342L9.84375 8.09748V7.91922V7.21875H10.2812V7.91922V8.09748L10.4558 8.13342C10.7022 8.18417 10.9363 8.28199 11.1456 8.42147L11.2948 8.52092L11.4216 8.39411L11.9188 7.89693L12.2281 8.20616L11.7309 8.70339L11.6041 8.83021L11.7035 8.97937C11.843 9.18867 11.9408 9.42282 11.9916 9.66916ZM10.0625 11.5937H10.0627C10.4687 11.5933 10.8578 11.4319 11.1449 11.1449C11.4319 10.8578 11.5933 10.4687 11.5937 10.0627V10.0625C11.5937 9.75963 11.5039 9.46359 11.3357 9.21177C11.1674 8.96 10.9283 8.76371 10.6485 8.6478C10.3687 8.53189 10.0608 8.50162 9.76377 8.56065C9.46674 8.61974 9.19392 8.76557 8.97972 8.97972C8.76557 9.19392 8.61974 9.46674 8.56065 9.76377C8.50162 10.0608 8.53189 10.3687 8.6478 10.6485C8.76371 10.9283 8.96 11.1674 9.21177 11.3357C9.46359 11.5039 9.75963 11.5937 10.0625 11.5937ZM3.71875 6.34375H5.90625V6.78125H3.71875V6.34375ZM3.71875 2.84375H8.53125V3.28125H3.71875V2.84375ZM3.71875 4.59375H8.53125V5.03125H3.71875V4.59375ZM3.71875 10.7187H5.90625V11.1562H3.71875V10.7187Z" fill="white" stroke="#390099" stroke-width="0.75"/>
<path d="M10.2812 1.75022V5.90625H9.84375V1.75V1.53125H9.625H2.625H2.40625V1.75V12.25V12.4687H2.625H5.90625V12.9062H2.62522C2.45117 12.9061 2.28429 12.8368 2.16122 12.7138C2.03817 12.5907 1.96895 12.4239 1.96875 12.2499V1.75012C1.96895 1.5761 2.03817 1.40927 2.16122 1.28622C2.28427 1.16317 2.4511 1.09395 2.62512 1.09375H9.62488C9.79889 1.09395 9.96572 1.16317 10.0888 1.28622C10.2118 1.40929 10.2811 1.57617 10.2812 1.75022Z" fill="#344879" stroke="#390099" stroke-width="0.75"/>
</svg>
