<?xml version="1.0" encoding="utf-8"?>
<!-- Generator: Adobe Illustrator 22.1.0, SVG Export Plug-In . SVG Version: 6.00 Build 0)  -->
<svg version="1.1" id="Layer_1" xmlns="http://www.w3.org/2000/svg" xmlns:xlink="http://www.w3.org/1999/xlink" x="0px" y="0px"
	 viewBox="0 0 112 112" style="enable-background:new 0 0 112 112;" xml:space="preserve">
<style type="text/css">
	.st0{fill:#390099;}
</style>
<path class="st0" d="M11.2,33.6h1.6c6.2,0,11.2,5,11.2,11.2v56c0,6.2-5,11.2-11.2,11.2h-1.6C5,112,0,107,0,100.8v-56
	C0,38.6,5,33.6,11.2,33.6z M56,0c6.2,0,11.2,5,11.2,11.2v89.6c0,6.2-5,11.2-11.2,11.2s-11.2-5-11.2-11.2V11.2C44.8,5,49.8,0,56,0z
	 M100.8,64c6.2,0,11.2,5,11.2,11.2v25.6c0,6.2-5,11.2-11.2,11.2c-6.2,0-11.2-5-11.2-11.2V75.2C89.6,69,94.6,64,100.8,64z"/>
</svg>
