<svg width="24" height="24" viewBox="0 0 24 24" fill="none" xmlns="http://www.w3.org/2000/svg">
<path d="M20.557 16.5757L20.6186 16.875H20.9242H22.125V17.625H20.9242H20.6186L20.557 17.9243C20.47 18.3466 20.3023 18.748 20.0632 19.1068L19.8927 19.3625L20.1101 19.5799L20.9624 20.4323L20.4323 20.9624L19.5799 20.1101L19.3625 19.8927L19.1068 20.0632C18.748 20.3023 18.3466 20.47 17.9243 20.557L17.625 20.6186V20.9242V22.125H16.875V20.9242V20.6186L16.5757 20.557C16.1534 20.47 15.752 20.3023 15.3932 20.0632L15.1375 19.8927L14.9201 20.1101L14.0677 20.9624L13.5376 20.4323L14.3899 19.5799L14.6073 19.3625L14.4368 19.1068C14.1977 18.748 14.03 18.3466 13.943 17.9243L13.8814 17.625H13.5757H12.375V16.875H13.5757H13.8814L13.943 16.5757C14.03 16.1534 14.1977 15.752 14.4368 15.3932L14.6073 15.1375L14.3899 14.9201L13.5376 14.0677L14.0677 13.5376L14.9201 14.3899L15.1375 14.6073L15.3932 14.4368C15.752 14.1977 16.1534 14.03 16.5757 13.943L16.875 13.8814V13.5758V12.375H17.625V13.5758V13.8814L17.9243 13.943C18.3466 14.03 18.748 14.1977 19.1068 14.4368L19.3625 14.6073L19.5799 14.3899L20.4323 13.5376L20.9624 14.0677L20.1101 14.9201L19.8927 15.1375L20.0632 15.3932C20.3023 15.752 20.47 16.1534 20.557 16.5757ZM17.25 19.875H17.2504C17.9463 19.8743 18.6134 19.5976 19.1055 19.1055C19.5976 18.6134 19.8743 17.9463 19.875 17.2504V17.25C19.875 16.7308 19.721 16.2233 19.4326 15.7916C19.1442 15.36 18.7342 15.0235 18.2545 14.8248C17.7749 14.6261 17.2471 14.5742 16.7379 14.6754C16.2287 14.7767 15.761 15.0267 15.3938 15.3938C15.0267 15.761 14.7767 16.2287 14.6754 16.7379C14.5742 17.2471 14.6261 17.7749 14.8248 18.2545C15.0235 18.7342 15.36 19.1442 15.7916 19.4326C16.2233 19.721 16.7308 19.875 17.25 19.875ZM6.375 10.875H10.125V11.625H6.375V10.875ZM6.375 4.875H14.625V5.625H6.375V4.875ZM6.375 7.875H14.625V8.625H6.375V7.875ZM6.375 18.375H10.125V19.125H6.375V18.375Z" fill="white" stroke="#390099" stroke-width="0.75"/>
<path d="M17.625 3.00037V10.125H16.875V3V2.625H16.5H4.5H4.125V3V21V21.375H4.5H10.125V22.125H4.50037C4.202 22.1247 3.91593 22.006 3.70494 21.7951C3.494 21.5841 3.37534 21.2981 3.375 20.9998V3.00021C3.37534 2.70189 3.494 2.41589 3.70494 2.20494C3.91589 1.994 4.20189 1.87534 4.50021 1.875H16.4998C16.7981 1.87534 17.0841 1.994 17.2951 2.20494C17.506 2.41593 17.6247 2.702 17.625 3.00037Z" fill="#344879" stroke="#390099" stroke-width="0.75"/>
</svg>
