<?xml version="1.0" encoding="utf-8"?>
<!-- Generator: Adobe Illustrator 22.1.0, SVG Export Plug-In . SVG Version: 6.00 Build 0)  -->
<svg version="1.1" id="Layer_1" xmlns="http://www.w3.org/2000/svg" xmlns:xlink="http://www.w3.org/1999/xlink" x="0px" y="0px"
	 viewBox="0 0 15.7 16" style="enable-background:new 0 0 15.7 16;" xml:space="preserve">
<style type="text/css">
	.st0{fill:#390099;}
	.st1{fill:#344879;}
</style>
<path class="st0" d="M10.4,13.5H1.1V6.8h9.3 M10.4,5.7H1.1c-0.3,0-0.5,0.1-0.7,0.3C0.2,6.3,0.1,6.5,0.1,6.8v6.6
	c0,0.3,0.1,0.6,0.3,0.8c0.2,0.2,0.5,0.3,0.7,0.3h2.6v1.1h4.1v-1.1h2.6c0.3,0,0.5-0.1,0.7-0.3c0.2-0.2,0.3-0.5,0.3-0.8V6.8
	c0-0.3-0.1-0.6-0.3-0.8C11,5.8,10.7,5.7,10.4,5.7z"/>
<path class="st1" d="M13,0.2c-1.4,0-2.6,1.2-2.6,2.8s1.2,2.8,2.6,2.8c1.4,0,2.6-1.2,2.6-2.8S14.5,0.2,13,0.2z M13,5.2
	c-1.1,0-2.1-1-2.1-2.2s0.9-2.2,2.1-2.2s2.1,1,2.1,2.2S14.2,5.2,13,5.2z"/>
<path class="st1" d="M13.2,1.6h-0.4v1.7l1.4,0.9l0.2-0.3L13.2,3V1.6z"/>
</svg>
