<svg width="14" height="13" viewBox="0 0 14 13" fill="none" xmlns="http://www.w3.org/2000/svg">
<g clip-path="url(#clip0_1_22)">
<path d="M13.3933 10.1319L8.34299 0.829625C8.20921 0.583957 8.01181 0.378885 7.77133 0.235998C7.53088 0.0931127 7.25637 0.0177002 6.97666 0.0177002C6.69697 0.0177002 6.42244 0.0931127 6.182 0.235998C5.94155 0.378885 5.74408 0.583957 5.61037 0.829625L0.554813 10.1319C0.42249 10.3693 0.35473 10.6374 0.358287 10.9093C0.361845 11.1812 0.436596 11.4473 0.575088 11.6813C0.713582 11.9152 0.910983 12.1088 1.14761 12.2428C1.38423 12.3766 1.65182 12.4461 1.9237 12.4444H12.0244C12.2941 12.4447 12.5592 12.3748 12.7937 12.2417C13.0282 12.1086 13.2241 11.9169 13.3621 11.6852C13.5002 11.4535 13.5756 11.19 13.5811 10.9205C13.5865 10.6508 13.5219 10.3844 13.3933 10.1474V10.1319ZM6.20148 3.49481C6.20148 3.28853 6.28342 3.0907 6.42929 2.94484C6.57515 2.79897 6.77298 2.71704 6.97926 2.71704C7.18553 2.71704 7.38337 2.79897 7.52923 2.94484C7.67509 3.0907 7.75704 3.28853 7.75704 3.49481V7.0674C7.75704 7.27368 7.67509 7.47151 7.52923 7.61738C7.38337 7.76323 7.18553 7.8452 6.97926 7.8452C6.77298 7.8452 6.57515 7.76323 6.42929 7.61738C6.28342 7.47151 6.20148 7.27368 6.20148 7.0674V3.49481ZM7 10.5C6.8236 10.5 6.65118 10.4477 6.50451 10.3497C6.35785 10.2517 6.24354 10.1124 6.17603 9.9494C6.10853 9.78646 6.09087 9.60718 6.12528 9.43413C6.15969 9.26115 6.24463 9.10225 6.36937 8.97749C6.49409 8.85282 6.65301 8.7678 6.82601 8.73343C6.99901 8.69905 7.17833 8.7167 7.34129 8.78422C7.50426 8.85165 7.64355 8.96598 7.74154 9.11267C7.83954 9.25928 7.89188 9.43172 7.89188 9.60812C7.89188 9.84472 7.79793 10.0715 7.63063 10.2388C7.46338 10.406 7.23653 10.5 7 10.5Z" fill="#390099"/>
</g>
<defs>
<clipPath id="clip0_1_22">
<rect width="14" height="12.4444" fill="white"/>
</clipPath>
</defs>
</svg>
