<svg width="30" height="30" viewBox="0 0 30 30" fill="none" xmlns="http://www.w3.org/2000/svg">
<circle cx="15" cy="15" r="15" fill="white" fill-opacity="0.5"/>
<path fill-rule="evenodd" clip-rule="evenodd" d="M9.36248 12.2953C9.54333 11.8734 9.84407 11.514 10.2274 11.2615C10.6107 11.009 11.0597 10.8746 11.5187 10.875H17.4831C18.4206 10.875 19.2681 11.4338 19.6375 12.2953L20.38 14.0278C20.4503 14.1919 20.5769 14.3269 20.7362 14.4066C21.205 14.6409 21.5378 15.0769 21.6409 15.5897L21.955 17.1638C21.9859 17.3147 22.0009 17.4684 22.0009 17.6231V18.0103C22.0009 18.7734 21.6353 19.4569 21.0634 19.8825V21.6563C21.0634 21.7806 21.014 21.8998 20.9261 21.9877C20.8382 22.0756 20.719 22.125 20.5947 22.125H18.7197C18.5953 22.125 18.4761 22.0756 18.3882 21.9877C18.3003 21.8998 18.2509 21.7806 18.2509 21.6563V20.4019C17.0397 20.4469 15.6775 20.4844 14.5009 20.4844C13.3244 20.4844 11.9622 20.4469 10.7509 20.4019V21.6563C10.7509 21.7806 10.7015 21.8998 10.6136 21.9877C10.5257 22.0756 10.4065 22.125 10.2822 22.125H8.40717C8.28285 22.125 8.16362 22.0756 8.07571 21.9877C7.9878 21.8998 7.93842 21.7806 7.93842 21.6563V19.8825C7.36654 19.4569 7.00092 18.7734 7.00092 18.0103V17.6231C7.00107 17.4689 7.01646 17.315 7.04685 17.1638L7.36092 15.5888C7.46404 15.0769 7.79685 14.64 8.26467 14.4066C8.42478 14.3265 8.55135 14.1923 8.62185 14.0278L9.36435 12.2953H9.36248ZM9.81248 18.375C10.0611 18.375 10.2996 18.2762 10.4754 18.1004C10.6512 17.9246 10.75 17.6861 10.75 17.4375C10.75 17.1889 10.6512 16.9504 10.4754 16.7746C10.2996 16.5988 10.0611 16.5 9.81248 16.5C9.56384 16.5 9.32538 16.5988 9.14957 16.7746C8.97375 16.9504 8.87498 17.1889 8.87498 17.4375C8.87498 17.6861 8.97375 17.9246 9.14957 18.1004C9.32538 18.2762 9.56384 18.375 9.81248 18.375ZM19.1875 18.375C19.4361 18.375 19.6746 18.2762 19.8504 18.1004C20.0262 17.9246 20.125 17.6861 20.125 17.4375C20.125 17.1889 20.0262 16.9504 19.8504 16.7746C19.6746 16.5988 19.4361 16.5 19.1875 16.5C18.9388 16.5 18.7004 16.5988 18.5246 16.7746C18.3487 16.9504 18.25 17.1889 18.25 17.4375C18.25 17.6861 18.3487 17.9246 18.5246 18.1004C18.7004 18.2762 18.9388 18.375 19.1875 18.375ZM12.625 16.5C12.3763 16.5 12.1379 16.5988 11.9621 16.7746C11.7863 16.9504 11.6875 17.1889 11.6875 17.4375C11.6875 17.6861 11.7863 17.9246 11.9621 18.1004C12.1379 18.2762 12.3763 18.375 12.625 18.375H16.375C16.6236 18.375 16.8621 18.2762 17.0379 18.1004C17.2137 17.9246 17.3125 17.6861 17.3125 17.4375C17.3125 17.1889 17.2137 16.9504 17.0379 16.7746C16.8621 16.5988 16.6236 16.5 16.375 16.5H12.625ZM9.72435 13.8647L10.6206 12.0713C10.6596 11.9935 10.7194 11.9281 10.7934 11.8824C10.8674 11.8367 10.9527 11.8125 11.0397 11.8125H17.9603C18.0473 11.8125 18.1325 11.8367 18.2065 11.8824C18.2806 11.9281 18.3404 11.9935 18.3794 12.0713L19.2756 13.8647C19.3122 13.9403 19.3283 14.0242 19.3222 14.108C19.3161 14.1918 19.288 14.2725 19.2407 14.342C19.1935 14.4115 19.1288 14.4673 19.0531 14.5038C18.9774 14.5403 18.8935 14.5563 18.8097 14.55C17.9565 14.4816 15.669 14.3906 14.5 14.3906C13.3309 14.3906 11.0425 14.4816 10.1903 14.55C10.1065 14.5563 10.0225 14.5403 9.94686 14.5038C9.87118 14.4673 9.80646 14.4115 9.75922 14.342C9.71197 14.2725 9.68388 14.1918 9.67776 14.108C9.67164 14.0242 9.68771 13.9403 9.72435 13.8647Z" fill="#390099"/>
<path d="M22.8975 8.96614L21.0036 5.47781C20.9535 5.38569 20.8794 5.30878 20.7893 5.2552C20.6991 5.20162 20.5962 5.17334 20.4913 5.17334C20.3864 5.17334 20.2834 5.20162 20.1933 5.2552C20.1031 5.30878 20.0291 5.38569 19.9789 5.47781L18.0831 8.96614C18.0335 9.05521 18.0081 9.15573 18.0094 9.25768C18.0107 9.35963 18.0388 9.45944 18.0907 9.54718C18.1426 9.63492 18.2166 9.70752 18.3054 9.75773C18.3941 9.80794 18.4945 9.83402 18.5964 9.83337H22.3842C22.4853 9.83346 22.5847 9.80726 22.6727 9.75735C22.7606 9.70744 22.8341 9.63552 22.8858 9.54866C22.9376 9.46179 22.9659 9.36296 22.9679 9.26187C22.97 9.16077 22.9457 9.06087 22.8975 8.97198V8.96614ZM20.2006 6.47726C20.2006 6.3999 20.2313 6.32571 20.286 6.27102C20.3407 6.21632 20.4149 6.18559 20.4923 6.18559C20.5696 6.18559 20.6438 6.21632 20.6985 6.27102C20.7532 6.32571 20.7839 6.3999 20.7839 6.47726V7.81698C20.7839 7.89433 20.7532 7.96852 20.6985 8.02322C20.6438 8.07792 20.5696 8.10864 20.4923 8.10864C20.4149 8.10864 20.3407 8.07792 20.286 8.02322C20.2313 7.96852 20.2006 7.89433 20.2006 7.81698V6.47726ZM20.5 9.1042C20.4339 9.1042 20.3692 9.08458 20.3142 9.04784C20.2592 9.01109 20.2164 8.95885 20.191 8.89774C20.1657 8.83663 20.1591 8.76938 20.172 8.70451C20.1849 8.63963 20.2168 8.58004 20.2635 8.53327C20.3103 8.48649 20.3699 8.45464 20.4348 8.44174C20.4997 8.42883 20.5669 8.43546 20.628 8.46077C20.6891 8.48608 20.7414 8.52895 20.7781 8.58395C20.8149 8.63895 20.8345 8.70361 20.8345 8.76976C20.8345 8.85846 20.7992 8.94352 20.7365 9.00624C20.6738 9.06896 20.5887 9.1042 20.5 9.1042Z" fill="#390099"/>
</svg>
