<svg width="14" height="14" viewBox="0 0 14 14" fill="none" xmlns="http://www.w3.org/2000/svg">
<path d="M9.1875 10.9375H1.3125V5.6875H9.1875M9.1875 4.8125H1.3125C1.08043 4.8125 0.857877 4.90468 0.693781 5.06878C0.529687 5.23288 0.4375 5.45542 0.4375 5.6875V10.9375C0.4375 11.1696 0.529687 11.3921 0.693781 11.5562C0.857877 11.7203 1.08043 11.8125 1.3125 11.8125H3.5V12.6875H7V11.8125H9.1875C9.41958 11.8125 9.64212 11.7203 9.80619 11.5562C9.97032 11.3921 10.0625 11.1696 10.0625 10.9375V5.6875C10.0625 5.45542 9.97032 5.23288 9.80619 5.06878C9.64212 4.90468 9.41958 4.8125 9.1875 4.8125Z" fill="#390099"/>
<path d="M11.3728 0.4375C10.1653 0.4375 9.1875 1.4175 9.1875 2.625C9.1875 3.8325 10.1653 4.8125 11.3728 4.8125C12.5825 4.8125 13.5625 3.8325 13.5625 2.625C13.5625 1.4175 12.5825 0.4375 11.3728 0.4375ZM11.375 4.375C10.4081 4.375 9.625 3.59188 9.625 2.625C9.625 1.65812 10.4081 0.875 11.375 0.875C12.3419 0.875 13.125 1.65812 13.125 2.625C13.125 3.59188 12.3419 4.375 11.375 4.375Z" fill="#344879"/>
<path d="M11.4844 1.53125H11.1563V2.84375L12.3047 3.53281L12.4687 3.26375L11.4844 2.67969V1.53125Z" fill="#344879"/>
</svg>
