<svg width="14" height="12" viewBox="0 0 14 12" fill="none" xmlns="http://www.w3.org/2000/svg">
<g clip-path="url(#clip0_1_16)">
<path d="M7.7 0H10.5V1.4H7.7V0ZM0.7 3.5H3.5V4.9H0.7V3.5ZM0.7 9.1H3.5V10.5H0.7V9.1ZM0 6.3H2.793V7.7H0V6.3ZM13.7949 2.5949L12.8051 1.6051L11.6102 2.8C10.8529 2.34231 9.98487 2.10026 9.1 2.1C6.3987 2.1 4.2 4.2987 4.2 7C4.2 9.7013 6.3987 11.9 9.1 11.9C11.8013 11.9 14 9.7013 14 7C13.9993 5.77224 13.5356 4.58991 12.7015 3.689L13.7949 2.5949ZM9.8 7.7H8.4V4.1706H9.8V7.7Z" fill="#390099"/>
</g>
<defs>
<clipPath id="clip0_1_16">
<rect width="14" height="11.9" fill="white"/>
</clipPath>
</defs>
</svg>
