<svg xmlns="http://www.w3.org/2000/svg" version="1.1" xmlns:xlink="http://www.w3.org/1999/xlink" xmlns:svgjs="http://svgjs.com/svgjs" width="1440" height="560" preserveAspectRatio="none" viewBox="0 0 1440 560"><g mask="url(&quot;#SvgjsMask1020&quot;)" fill="none"><rect width="1440" height="560" x="0" y="0" fill="#1e3266"></rect><path d="M1488 560L0 560 L0 361.7Q65.17 306.87, 120 372.03Q144.63 276.66, 240 301.29Q286.21 275.5, 312 321.72Q332.16 269.88, 384 290.05Q430.35 264.4, 456 310.75Q500.54 283.29, 528 327.84Q579.41 307.25, 600 358.67Q605.39 292.06, 672 297.45Q725.46 230.91, 792 284.38Q888.13 260.51, 912 356.65Q920.94 293.58, 984 302.52Q1010.76 257.28, 1056 284.04Q1108.2 264.25, 1128 316.45Q1199.43 267.88, 1248 339.32Q1281.66 252.98, 1368 286.64Q1448.16 246.8, 1488 326.96z" fill="#182f5d"></path><path d="M1512 560L0 560 L0 352.49Q50.27 330.76, 72 381.03Q119.09 356.12, 144 403.2Q157.78 344.98, 216 358.76Q288.65 311.41, 336 384.07Q400.57 376.64, 408 441.22Q436.11 397.33, 480 425.44Q491.68 365.12, 552 376.79Q617.13 321.92, 672 387.05Q747.42 342.47, 792 417.89Q861.56 367.45, 912 437.01Q953.39 358.4, 1032 399.79Q1080.92 376.72, 1104 425.64Q1109.7 359.34, 1176 365.04Q1206.3 323.34, 1248 353.64Q1300.08 333.72, 1320 385.79Q1388.3 334.09, 1440 402.38Q1491.82 382.19, 1512 434.01z" fill="#25467d"></path><path d="M1512 560L0 560 L0 456.76Q54.84 391.6, 120 446.43Q174.22 380.65, 240 434.87Q330 404.87, 360 494.87Q386.77 449.64, 432 476.41Q466.86 391.27, 552 426.14Q606.13 408.27, 624 462.41Q699.86 418.26, 744 494.12Q788.48 466.6, 816 511.07Q861.02 436.09, 936 481.1Q1002.52 427.62, 1056 494.14Q1062.36 428.5, 1128 434.86Q1193.48 380.34, 1248 445.82Q1320.61 398.42, 1368 471.03Q1397.03 428.06, 1440 457.09Q1501.82 446.9, 1512 508.72z" fill="#356cb1"></path><path d="M1512 560L0 560 L0 524.9Q20.23 473.13, 72 493.36Q138.81 440.17, 192 506.98Q271.5 466.49, 312 545.99Q389.51 503.5, 432 581.02Q461.18 490.2, 552 519.39Q599.4 494.79, 624 542.19Q692.91 491.1, 744 560.01Q811.75 507.75, 864 575.5Q886.76 526.26, 936 549.02Q984.95 477.97, 1056 526.92Q1079.88 478.8, 1128 502.69Q1184.63 487.32, 1200 543.94Q1244.88 516.82, 1272 561.7Q1298.94 468.64, 1392 495.59Q1469.37 452.96, 1512 530.32z" fill="white"></path></g><defs><mask id="SvgjsMask1020"><rect width="1440" height="560" fill="#ffffff"></rect></mask></defs></svg>